# This file uses centimeters as units for non-parametric coordinates.

v -3.180703 7.946240 25.526541
v 3.201280 7.946240 25.526541
v 3.201280 0.570892 25.526541
v -3.180703 0.570892 25.526541
v -3.180703 7.946240 25.663183
v -3.180703 0.570892 25.663183
v 3.201280 0.570892 25.663183
v 3.201280 7.946240 25.663183
vt 0.935400 0.533885
vt 0.935400 0.001992
vt 0.945508 0.001992
vt 0.945508 0.533885
vt 0.962511 0.001992
vt 0.962511 0.533885
vt 0.952403 0.533885
vt 0.952403 0.001992
vt 0.957319 0.998008
vt 0.957319 0.537754
vt 0.967427 0.537754
vt 0.967427 0.998008
vt 0.951372 0.537754
vt 0.951372 0.998008
vt 0.941264 0.998008
vt 0.941264 0.537754
vt 0.001931 0.001992
vt 0.462185 0.001992
vt 0.462185 0.533885
vt 0.001931 0.533885
vt 0.468760 0.533885
vt 0.468760 0.001992
vt 0.929014 0.001992
vt 0.929014 0.533885
vn 0.000000 0.000000 -1.000000
vn 0.000000 0.000000 -1.000000
vn 0.000000 0.000000 -1.000000
vn 0.000000 0.000000 -1.000000
vn 0.000000 0.000000 1.000000
vn 0.000000 0.000000 1.000000
vn 0.000000 0.000000 1.000000
vn 0.000000 0.000000 1.000000
vn -1.000000 0.000000 0.000000
vn -1.000000 0.000000 0.000000
vn -1.000000 0.000000 0.000000
vn -1.000000 0.000000 0.000000
vn 0.000000 -1.000000 0.000000
vn 0.000000 -1.000000 0.000000
vn 0.000000 -1.000000 0.000000
vn 0.000000 -1.000000 0.000000
vn 1.000000 0.000000 0.000000
vn 1.000000 0.000000 0.000000
vn 1.000000 0.000000 0.000000
vn 1.000000 0.000000 0.000000
vn 0.000000 1.000000 0.000000
vn 0.000000 1.000000 0.000000
vn 0.000000 1.000000 0.000000
vn 0.000000 1.000000 0.000000
s off
f 1/17/1 2/18/2 3/19/3 4/20/4
f 5/21/5 6/22/6 7/23/7 8/24/8
f 1/1/9 4/2/10 6/3/11 5/4/12
f 4/9/13 3/10/14 7/11/15 6/12/16
f 3/5/17 2/6/18 8/7/19 7/8/20
f 2/13/21 1/14/22 5/15/23 8/16/24
