# This file uses centimeters as units for non-parametric coordinates.

v 10.308474 18.189835 0.000000
v 10.308474 9.329011 0.000000
v 10.308474 18.189835 -8.395430
v 10.308474 9.329011 -8.395430
v 10.308474 0.319991 0.000000
v 10.308474 0.319991 -8.395430
v -10.293849 18.189835 0.000000
v -10.293849 9.329011 0.000000
v -10.293849 18.189835 -8.395430
v -10.293849 9.329011 -8.395430
v -10.293849 0.319991 0.000000
v -10.293849 0.319991 -8.395430
v 10.308474 18.189835 8.395430
v 10.308474 9.329011 8.395430
v 10.308474 0.319991 8.395430
v -10.293849 18.189835 8.395430
v -10.293849 9.329011 8.395430
v -10.293849 0.319991 8.395430
vt 0.001872 0.504130
vt 0.001872 0.001992
vt 0.001872 0.998008
vt 0.469810 0.504130
vt 0.469810 0.001992
vt 0.469810 0.998008
vt 0.469810 0.504130
vt 0.469810 0.001992
vt 0.001872 0.504130
vt 0.001872 0.001992
vt 0.469810 0.998008
vt 0.001872 0.998008
vt 0.001872 0.504130
vt 0.001872 0.001992
vt 0.469810 0.504130
vt 0.469810 0.001992
vt 0.001872 0.998008
vt 0.469810 0.998008
vt 0.001872 0.504130
vt 0.469810 0.504130
vt 0.001872 0.001992
vt 0.469810 0.001992
vt 0.001872 0.998008
vt 0.469810 0.998008
vn -1.000000 0.000000 0.000000
vn -1.000000 0.000000 0.000000
vn -1.000000 0.000000 0.000000
vn -1.000000 0.000000 0.000000
vn -1.000000 0.000000 0.000000
vn -1.000000 0.000000 0.000000
vn -1.000000 0.000000 0.000000
vn -1.000000 0.000000 0.000000
vn 1.000000 0.000000 0.000000
vn 1.000000 0.000000 0.000000
vn 1.000000 0.000000 0.000000
vn 1.000000 0.000000 0.000000
vn 1.000000 0.000000 0.000000
vn 1.000000 0.000000 0.000000
vn 1.000000 0.000000 0.000000
vn 1.000000 0.000000 0.000000
vn -1.000000 0.000000 0.000000
vn -1.000000 0.000000 0.000000
vn -1.000000 0.000000 0.000000
vn -1.000000 0.000000 0.000000
vn 1.000000 0.000000 0.000000
vn 1.000000 0.000000 0.000000
vn 1.000000 0.000000 0.000000
vn 1.000000 0.000000 0.000000
s 1
f 4/4/1 6/5/2 2/1/3
f 2/1/3 6/5/2 5/2/4
s 2
f 4/4/5 2/1/6 3/6/7
f 3/6/7 2/1/6 1/3/8
s 3
f 10/7/9 8/9/10 12/8/11
f 8/9/10 11/10/12 12/8/11
s 4
f 10/7/13 9/11/14 8/9/15
f 9/11/14 7/12/16 8/9/15
s 1
f 14/13/17 2/15/3 15/14/18
f 2/15/3 5/16/4 15/14/18
s 2
f 14/13/19 13/17/20 2/15/6
f 13/17/20 1/18/8 2/15/6
s 3
f 17/19/21 18/21/22 8/20/10
f 8/20/10 18/21/22 11/22/12
s 4
f 17/19/23 8/20/15 16/23/24
f 16/23/24 8/20/15 7/24/16
